<svg width="47" height="48" viewBox="0 0 47 48" xmlns="http://www.w3.org/2000/svg">
  <g clip-path="url(#clip0_4367_155)">
    <path
      d="M23.5011 1.17889C22.6283 1.17889 21.7679 1.22572 20.9198 1.31938C20.6163 1.35265 20.3223 1.4448 20.0547 1.59058C19.7871 1.73636 19.5511 1.93291 19.3602 2.16901C19.1693 2.4051 19.0272 2.67613 18.9421 2.9666C18.857 3.25707 18.8305 3.5613 18.864 3.86192C18.8976 4.16255 18.9907 4.45368 19.1379 4.71868C19.2851 4.98369 19.4836 5.21739 19.722 5.40644C19.9604 5.59549 20.234 5.73619 20.5274 5.82049C20.8207 5.9048 21.1279 5.93107 21.4314 5.8978C25.2638 5.47323 29.1347 6.23851 32.5086 8.08781C35.8826 9.9371 38.5929 12.779 40.2647 16.2204C41.9365 19.6619 42.4872 23.5327 41.8404 27.2976C41.1937 31.0625 39.3817 34.5353 36.6549 37.2357C33.9281 39.9361 30.4214 41.7307 26.6197 42.3711C22.8181 43.0116 18.9094 42.4663 15.4344 40.8107C11.9593 39.155 9.08967 36.4709 7.22232 33.1296C5.35496 29.7882 4.5822 25.9548 5.01093 22.1595C5.04452 21.8589 5.01799 21.5546 4.93286 21.2642C4.84773 20.9737 4.70566 20.7027 4.51476 20.4666C4.12923 19.9898 3.56823 19.6841 2.95517 19.617C2.3421 19.5498 1.72719 19.7265 1.24572 20.1083C1.00731 20.2974 0.808842 20.5311 0.66164 20.7961C0.514435 21.0611 0.421383 21.3522 0.387791 21.6528C0.294769 22.4927 0.247482 23.3448 0.245934 24.2092C0.245934 36.9288 10.6573 47.2395 23.5011 47.2395C36.345 47.2395 46.7563 36.9288 46.7563 24.2092C46.7563 11.4896 36.345 1.17889 23.5011 1.17889ZM23.5756 14.7138C23.4223 15.305 23.5123 15.9324 23.8258 16.4579C24.1394 16.9834 24.6507 17.3642 25.2476 17.5166C26.8874 17.942 28.3149 18.9437 29.2637 20.3348C30.2125 21.7259 30.6178 23.4114 30.404 25.0767C30.1902 26.7421 29.3718 28.2734 28.1016 29.3851C26.8315 30.4968 25.1963 31.1129 23.5011 31.1183C21.954 31.1189 20.4505 30.6102 19.2271 29.6722C18.0038 28.7342 17.13 27.42 16.7432 25.9365C16.5783 25.3569 16.1909 24.8643 15.6638 24.5643C15.1367 24.2642 14.5119 24.1805 13.9232 24.331C13.3346 24.4816 12.8289 24.8545 12.5144 25.3698C12.2 25.8851 12.1018 26.5019 12.241 27.088C12.9544 29.7962 14.639 32.1546 16.98 33.7225C19.3211 35.2904 22.1585 35.9607 24.9621 35.6081C27.7658 35.2554 30.3439 33.904 32.2149 31.8063C34.0858 29.7086 35.1216 27.008 35.1287 24.2092C35.1291 21.656 34.2727 19.1751 32.6941 17.1566C31.1155 15.138 28.9043 13.6962 26.408 13.0579C26.1123 12.9824 25.8044 12.9654 25.5019 13.0077C25.1995 13.0501 24.9085 13.151 24.6454 13.3048C24.3824 13.4586 24.1526 13.6622 23.969 13.9039C23.7854 14.1457 23.6517 14.4209 23.5756 14.7138ZM8.37595 1.47138C7.95148 1.64567 7.58866 1.94059 7.33329 2.31892C7.07792 2.69724 6.94145 3.14201 6.9411 3.59708V7.81162H2.68773C2.22786 7.81172 1.77834 7.94684 1.396 8.19991C1.01366 8.45297 0.715668 8.81262 0.539696 9.23339C0.363724 9.65415 0.317673 10.1171 0.40736 10.5638C0.497051 11.0105 0.718456 11.4208 1.04359 11.7429L9.26895 19.8795C9.70497 20.3114 10.2964 20.5542 10.9131 20.5543H16.5246L20.7756 24.7665C21.212 25.1987 21.8038 25.4414 22.4209 25.4414C23.038 25.4414 23.6299 25.1987 24.0662 24.7665C24.5026 24.3344 24.7478 23.7483 24.7478 23.1371C24.7478 22.526 24.5026 21.9399 24.0662 21.5077L19.8129 17.3001V11.7406C19.8127 11.1298 19.5676 10.5442 19.1315 10.1123L10.9108 1.96883C10.5856 1.64656 10.1711 1.42706 9.71992 1.33811C9.26871 1.24915 8.801 1.29473 8.37595 1.46908M11.5921 9.15429L15.1618 12.694V15.9505H11.8735L8.30154 12.4154H9.26663C9.88339 12.4154 10.4749 12.1727 10.911 11.7408C11.3471 11.3089 11.5921 10.7232 11.5921 10.1123V9.15429Z"
      fill="#E3A932" />
  </g>
  <defs>
    <clipPath id="clip0_4367_155">
      <rect width="47" height="48" fill="#E3A932" transform="matrix(-1 0 0 1 47 0)" />
    </clipPath>
  </defs>
</svg>
  