<svg width="53" height="53" viewBox="0 0 53 53" fill="none" xmlns="http://www.w3.org/2000/svg">
  <g>
    <path
      d="M48.583 48.5838H24.2913C21.6813 48.5838 19.0969 48.0697 16.6855 47.0709C14.2742 46.0721 12.0832 44.6081 10.2376 42.7625C8.39203 40.917 6.92805 38.726 5.92924 36.3146C4.93042 33.9033 4.41634 31.3188 4.41634 28.7088C4.41634 26.0988 4.93042 23.5143 5.92924 21.103C6.92805 18.6916 8.39203 16.5006 10.2376 14.6551C12.0832 12.8095 14.2742 11.3455 16.6855 10.3467C19.0969 9.34788 21.6813 8.8338 24.2913 8.8338C34.5225 8.8338 43.0688 16.563 44.1663 26.5005M12.1455 12.1463L9.93718 9.93797M40.8538 9.93797L38.6455 12.1463"
      stroke="#67F2BF" stroke-width="2.5" stroke-linecap="round" stroke-linejoin="round"
    />
    <path
      d="M16.5622 19.8754L23.0547 26.3679C23.3602 26.0516 23.7258 25.7992 24.1299 25.6256C24.534 25.452 24.9687 25.3606 25.4085 25.3568C25.8484 25.353 26.2846 25.4368 26.6917 25.6033C27.0987 25.7699 27.4686 26.0159 27.7796 26.3269C28.0906 26.6379 28.3366 27.0078 28.5031 27.4148C28.6697 27.8219 28.7535 28.2581 28.7497 28.698C28.7459 29.1378 28.6545 29.5725 28.4809 29.9766C28.3073 30.3807 28.0549 30.7463 27.7386 31.0518C27.1171 31.6732 26.2743 32.0223 25.3955 32.0223C24.5167 32.0223 23.6739 31.6732 23.0525 31.0518C22.4311 30.4304 22.082 29.5876 22.082 28.7088C22.082 27.83 22.4311 26.9872 23.0525 26.3657M25.3955 7.72961V4.41711M29.8122 4.41711H20.9788M48.583 33.1254H41.958M48.583 41.9588H37.5413"
      stroke="#67F2BF" stroke-width="2.5" stroke-linecap="round" stroke-linejoin="round" />
  </g>
</svg>