<svg width="59" height="38" viewBox="0 0 59 38" xmlns="http://www.w3.org/2000/svg">
  <g clip-path="url(#clip0_4367_130)">
    <mask id="mask0_4367_130" style="mask-type:luminance" maskUnits="userSpaceOnUse" x="5" y="0"
      width="59" height="38">
      <path
        d="M46.7083 35.994C47.4526 35.994 48.1547 35.6313 48.5348 34.9996C50.4978 31.7367 51.625 27.9258 51.625 23.8551C51.625 11.7877 41.7193 2.00513 29.5 2.00513C17.2806 2.00513 7.375 11.7877 7.375 23.8551C7.375 27.9258 8.50215 31.7367 10.4651 34.9996C10.8452 35.6313 11.5475 35.994 12.2917 35.994H46.7083Z"
        stroke="white" stroke-width="3" stroke-linecap="round" />
      <path
        d="M31.2362 14.2776C25.8904 13.3538 20.788 16.8994 19.8343 22.2009C18.8806 27.5024 22.4379 32.5447 27.7837 33.4685C33.1295 34.3924 63.3747 29.7256 63.3747 29.7256C63.3747 29.7256 36.582 15.2015 31.2362 14.2776Z"
        fill="black" />
      <path
        d="M30.369 19.0672C27.7077 18.607 25.1417 20.391 24.6669 23.0317C24.1921 25.6724 25.9811 28.2094 28.6424 28.6696C31.3038 29.1298 53.6997 28.0518 53.6997 28.0518C53.6997 28.0518 33.0304 19.5274 30.369 19.0672Z"
        fill="white" />
    </mask>
    <g mask="url(#mask0_4367_130)">
      <path d="M-3.8147e-06 -10.1333H59V48.1334H-3.8147e-06V-10.1333Z" fill="#E8523F" />
    </g>
  </g>
  <defs>
    <clipPath id="clip0_4367_130">
      <rect width="59" height="38" transform="matrix(-1 0 0 1 59 0)" />
    </clipPath>
  </defs>
</svg>
  