<svg width="118" height="118" viewBox="0 0 118 118" fill="none" xmlns="http://www.w3.org/2000/svg">
  <g filter="url(#filter0_f_4341_18)">
    <circle cx="59" cy="59" r="58" fill="url(#paint0_diamond_4341_18)" />
  </g>
  <g filter="url(#filter1_f_4341_18)">
    <circle cx="59.5" cy="59.5" r="50.5" fill="url(#paint1_linear_4341_18)" />
  </g>
  <g filter="url(#filter2_f_4341_18)">
    <circle cx="59.5" cy="58.5" r="44.5" fill="url(#paint2_linear_4341_18)" />
  </g>
  <g filter="url(#filter3_d_4341_18)">
    <path
      d="M78.0909 42H42.9091C40.7395 42 39 43.78 39 46V74C39 76.22 40.7395 78 42.9091 78H78.0909C80.2605 78 82 76.22 82 74V46C82 43.78 80.2605 42 78.0909 42ZM76.1364 74.04H44.8636C43.7886 74.04 42.9091 73.14 42.9091 72.04V47.96C42.9091 46.86 43.7886 45.96 44.8636 45.96H76.1364C77.2114 45.96 78.0909 46.86 78.0909 47.96V72.04C78.0909 73.14 77.2114 74.04 76.1364 74.04ZM56.5909 60H52.6818L59.8159 52.7C60.2068 52.3 60.8127 52.3 61.2036 52.7L68.3182 60H64.4091V68H56.5909V60Z"
      fill="white" />
  </g>
  <defs>
    <filter id="filter0_f_4341_18" x="0.6" y="0.6" width="116.8" height="116.8"
      filterUnits="userSpaceOnUse" color-interpolation-filters="sRGB">
      <feFlood flood-opacity="0" result="BackgroundImageFix" />
      <feBlend mode="normal" in="SourceGraphic" in2="BackgroundImageFix" result="shape" />
      <feGaussianBlur stdDeviation="0.2" result="effect1_foregroundBlur_4341_18" />
    </filter>
    <filter id="filter1_f_4341_18" x="7.2" y="7.2" width="104.6" height="104.6"
      filterUnits="userSpaceOnUse" color-interpolation-filters="sRGB">
      <feFlood flood-opacity="0" result="BackgroundImageFix" />
      <feBlend mode="normal" in="SourceGraphic" in2="BackgroundImageFix" result="shape" />
      <feGaussianBlur stdDeviation="0.9" result="effect1_foregroundBlur_4341_18" />
    </filter>
    <filter id="filter2_f_4341_18" x="13.1" y="12.1" width="92.8" height="92.8"
      filterUnits="userSpaceOnUse" color-interpolation-filters="sRGB">
      <feFlood flood-opacity="0" result="BackgroundImageFix" />
      <feBlend mode="normal" in="SourceGraphic" in2="BackgroundImageFix" result="shape" />
      <feGaussianBlur stdDeviation="0.95" result="effect1_foregroundBlur_4341_18" />
    </filter>
    <filter id="filter3_d_4341_18" x="33.5" y="36.5" width="54" height="47"
      filterUnits="userSpaceOnUse" color-interpolation-filters="sRGB">
      <feFlood flood-opacity="0" result="BackgroundImageFix" />
      <feColorMatrix in="SourceAlpha" type="matrix"
        values="0 0 0 0 0 0 0 0 0 0 0 0 0 0 0 0 0 0 127 0" result="hardAlpha" />
      <feOffset />
      <feGaussianBlur stdDeviation="2.75" />
      <feComposite in2="hardAlpha" operator="out" />
      <feColorMatrix type="matrix" values="0 0 0 0 0 0 0 0 0 0 0 0 0 0 0 0 0 0 0.32 0" />
      <feBlend mode="normal" in2="BackgroundImageFix" result="effect1_dropShadow_4341_18" />
      <feBlend mode="normal" in="SourceGraphic" in2="effect1_dropShadow_4341_18" result="shape" />
    </filter>
    <radialGradient id="paint0_diamond_4341_18" cx="0" cy="0" r="1" gradientUnits="userSpaceOnUse"
      gradientTransform="translate(38.082 32.377) rotate(46.3686) scale(98.5246 230.187)">
      <stop stop-color="#F5E35D" />
      <stop offset="1" stop-color="#DD7E27" />
    </radialGradient>
    <linearGradient id="paint1_linear_4341_18" x1="59.5" y1="9" x2="104.117" y2="138.437"
      gradientUnits="userSpaceOnUse">
      <stop stop-color="#EEC753" />
      <stop offset="1" stop-color="#DE852B" stop-opacity="0.15" />
    </linearGradient>
    <linearGradient id="paint2_linear_4341_18" x1="43.5737" y1="48.1947" x2="117.584" y2="128.763"
      gradientUnits="userSpaceOnUse">
      <stop stop-color="#EE8B30" />
      <stop offset="1" stop-color="#F3DD65" />
    </linearGradient>
  </defs>
</svg>
  