<svg width="30" height="30" viewBox="0 0 30 30" fill="none" xmlns="http://www.w3.org/2000/svg">
<rect width="30" height="30" rx="15" fill="#3D4D5C"/>
<path d="M12.1409 7.85742L9.28372 7.86092C8.49543 7.86189 7.8569 8.5012 7.8569 9.28949V12.142C7.8569 12.8746 8.40839 13.4784 9.11887 13.5609L9.28723 13.5705L12.1444 13.567C12.9327 13.5661 13.5712 12.9268 13.5712 12.1385V9.28599C13.5712 8.55337 13.0197 7.94955 12.3092 7.86703L12.1409 7.85742ZM20.7123 7.85742L17.8552 7.86092C17.0669 7.86189 16.4283 8.5012 16.4283 9.28949V12.142C16.4283 12.8746 16.9798 13.4784 17.6903 13.5609L17.8587 13.5705L20.7158 13.567C21.5041 13.5661 22.1426 12.9268 22.1426 12.1385V9.28599C22.1426 8.55337 21.5911 7.94955 20.8806 7.86703L20.7123 7.85742ZM12.1409 16.4289L9.28372 16.4324C8.49543 16.4333 7.8569 17.0726 7.8569 17.8609V20.7134C7.8569 21.446 8.40839 22.0498 9.11887 22.1324L9.28723 22.142L12.1444 22.1385C12.9327 22.1375 13.5712 21.4982 13.5712 20.7099V17.8574C13.5712 17.1248 13.0197 16.521 12.3092 16.4385L12.1409 16.4289ZM20.7123 16.4289L17.8552 16.4324C17.0669 16.4333 16.4283 17.0726 16.4283 17.8609V20.7134C16.4283 21.446 16.9798 22.0498 17.6903 22.1324L17.8587 22.142L20.7158 22.1385C21.5041 22.1375 22.1426 21.4982 22.1426 20.7099V17.8574C22.1426 17.1248 21.5911 16.521 20.8806 16.4385L20.7123 16.4289Z" stroke="white" stroke-linecap="round" stroke-linejoin="round"/>
</svg>
