<svg width="30" height="30" viewBox="0 0 30 30" fill="none" xmlns="http://www.w3.org/2000/svg">
<rect width="30" height="30" rx="15" fill="#3D4D5C"/>
<path d="M15 7.3125C15.6226 7.31246 16.2216 7.55067 16.6742 7.97825C17.1267 8.40584 17.3985 8.9904 17.4338 9.612L17.4375 9.75H21.375C21.5175 9.75004 21.6547 9.80418 21.7588 9.90148C21.863 9.99878 21.9263 10.132 21.936 10.2742C21.9457 10.4163 21.9011 10.5569 21.8112 10.6675C21.7212 10.778 21.5927 10.8503 21.4515 10.8698L21.375 10.875H20.778L19.818 20.64C19.7699 21.1268 19.5503 21.5807 19.1985 21.9206C18.8466 22.2605 18.3854 22.4642 17.8973 22.4955L17.7653 22.5H12.2347C11.7453 22.5 11.2719 22.3259 10.899 22.009C10.5261 21.692 10.2781 21.2528 10.1992 20.7698L10.182 20.6392L9.22125 10.875H8.625C8.48907 10.875 8.35774 10.8258 8.2553 10.7364C8.15286 10.6471 8.08624 10.5237 8.06775 10.389L8.0625 10.3125C8.06251 10.1766 8.11173 10.0452 8.20108 9.9428C8.29042 9.84036 8.41383 9.77374 8.5485 9.75525L8.625 9.75H12.5625C12.5625 9.10353 12.8193 8.48355 13.2764 8.02643C13.7335 7.56931 14.3535 7.3125 15 7.3125ZM19.6478 10.875H10.3515L11.3017 20.529C11.3228 20.7444 11.4177 20.9459 11.5704 21.0993C11.7231 21.2527 11.9242 21.3485 12.1395 21.3705L12.2347 21.375H17.7653C18.2153 21.375 18.597 21.0562 18.684 20.6235L18.699 20.529L19.647 10.875H19.6478ZM16.3125 12.9375C16.4484 12.9375 16.5798 12.9867 16.6822 13.0761C16.7846 13.1654 16.8513 13.2888 16.8698 13.4235L16.875 13.5V18.75C16.875 18.8925 16.8208 19.0297 16.7235 19.1338C16.6262 19.238 16.493 19.3013 16.3508 19.311C16.2087 19.3207 16.0681 19.2761 15.9575 19.1862C15.847 19.0962 15.7747 18.9677 15.7552 18.8265L15.75 18.75V13.5C15.75 13.3508 15.8093 13.2077 15.9148 13.1023C16.0202 12.9968 16.1633 12.9375 16.3125 12.9375ZM13.6875 12.9375C13.8234 12.9375 13.9548 12.9867 14.0572 13.0761C14.1596 13.1654 14.2263 13.2888 14.2448 13.4235L14.25 13.5V18.75C14.25 18.8925 14.1958 19.0297 14.0985 19.1338C14.0012 19.238 13.868 19.3013 13.7258 19.311C13.5837 19.3207 13.4431 19.2761 13.3325 19.1862C13.222 19.0962 13.1497 18.9677 13.1302 18.8265L13.125 18.75V13.5C13.125 13.3508 13.1843 13.2077 13.2898 13.1023C13.3952 12.9968 13.5383 12.9375 13.6875 12.9375ZM15 8.4375C14.6706 8.43751 14.3533 8.56138 14.111 8.78451C13.8687 9.00764 13.7191 9.31372 13.692 9.642L13.6875 9.75H16.3125C16.3125 9.4019 16.1742 9.06806 15.9281 8.82192C15.6819 8.57578 15.3481 8.4375 15 8.4375Z" fill="white"/>
</svg>
